<svg xmlns="http://www.w3.org/2000/svg" xmlns:xlink="http://www.w3.org/1999/xlink" width="20.429" height="20.429" viewBox="0 0 20.429 20.429"><defs><path id="a" d="M0 0h20.429v20.429H0z"/></defs><clipPath id="b"><use xlink:href="#a" overflow="visible"/></clipPath><path clip-path="url(#b)" fill="none" stroke="#DC1F26" stroke-miterlimit="10" d="M10.215 19.929c5.365 0 9.715-4.349 9.715-9.714C19.93 4.849 15.58.5 10.215.5S.5 4.849.5 10.215s4.35 9.714 9.715 9.714"/><path clip-path="url(#b)" fill="none" stroke="#DC1F26" stroke-width=".5" stroke-miterlimit="10" d="M11.478 8.087V4.564c0-.563-1.498-1.019-3.345-1.019s-3.346.456-3.346 1.019v10.819c0 .284.38.54.995.725.173.439 1.157.776 2.35.776s2.177-.337 2.35-.776c.613-.185.995-.44.995-.725v-3.629"/><ellipse clip-path="url(#b)" fill="none" stroke="#DC1F26" stroke-width=".25" stroke-miterlimit="10" cx="8.246" cy="15.332" rx=".458" ry=".2"/><circle clip-path="url(#b)" fill="none" stroke="#DC1F26" stroke-width=".25" stroke-miterlimit="10" cx="8.386" cy="6.086" r=".715"/><path clip-path="url(#b)" fill="#FFF" d="M13.147 14.175c-.136-.062-3.293-1.529-3.293-3.637V7.191c0-.078.05-.148.124-.173.052-.018 1.282-.424 3.245-.424 1.962 0 3.193.407 3.244.424a.182.182 0 0 1 .124.173v3.348c0 2.093-3.157 3.575-3.292 3.637a.18.18 0 0 1-.152-.001"/><path clip-path="url(#b)" fill="none" stroke="#DC1F26" stroke-width=".5" stroke-miterlimit="10" d="M13.147 14.175c-.136-.062-3.293-1.529-3.293-3.637V7.191c0-.078.05-.148.124-.173.052-.018 1.282-.424 3.245-.424 1.962 0 3.193.407 3.244.424a.182.182 0 0 1 .124.173v3.348c0 2.093-3.157 3.575-3.292 3.637a.18.18 0 0 1-.152-.001"/><path clip-path="url(#b)" fill="#DC1F26" d="M15.799 10.426V7.575s-.975-.337-2.519-.337c-.615 0-1.139.053-1.548.118.233-.018.485-.029.755-.029 1.563 0 2.96.427 2.96.427v2.451c0 1.756-2.167 3.048-2.167 3.048s2.519-1.198 2.519-2.827"/><path clip-path="url(#b)" fill="none" stroke="#DC1F26" stroke-width=".25" stroke-miterlimit="10" d="M15.799 10.426V7.575s-.975-.337-2.519-.337c-.615 0-1.139.053-1.548.118.233-.018.485-.029.755-.029 1.563 0 2.96.427 2.96.427v2.451c0 1.756-2.167 3.048-2.167 3.048s2.519-1.198 2.519-2.827z"/></svg>