<svg xmlns="http://www.w3.org/2000/svg" xmlns:xlink="http://www.w3.org/1999/xlink" width="20.429" height="20.429" viewBox="0 0 20.429 20.429"><defs><path id="a" d="M0 0h20.429v20.429H0z"/></defs><clipPath id="b"><use xlink:href="#a" overflow="visible"/></clipPath><path clip-path="url(#b)" fill="none" stroke="#DC1F26" stroke-miterlimit="10" d="M10.215 19.929c5.365 0 9.714-4.349 9.714-9.714C19.929 4.849 15.58.5 10.215.5S.5 4.849.5 10.215s4.35 9.714 9.715 9.714"/><defs><path id="c" d="M9.581 3.903v9.342l-.055.023a1.85 1.85 0 0 0 .382 3.535 1.897 1.897 0 0 0 1.604-.442 1.852 1.852 0 0 0 .274-2.476 1.85 1.85 0 0 0-.801-.618l-.051-.022V3.903s.049-.606-.677-.606c-.706 0-.676.606-.676.606"/></defs><clipPath id="d"><use xlink:href="#c" overflow="visible"/></clipPath><linearGradient id="e" gradientUnits="userSpaceOnUse" y1="20.435" x2="1" y2="20.435" gradientTransform="matrix(.1667 14.6667 14.6667 -.1667 -289.495 7.63)"><stop offset="0" stop-color="#fff"/><stop offset="1" stop-color="#ed1c24"/></linearGradient><path clip-path="url(#d)" fill="url(#e)" d="M12.372 3.25l.155 13.657-4.334.049-.154-13.657z"/><defs><path id="f" d="M0 0h20.429v20.429H0z"/></defs><clipPath id="g"><use xlink:href="#f" overflow="visible"/></clipPath><path clip-path="url(#g)" fill="none" stroke="#DC1F26" stroke-width=".25" stroke-miterlimit="10" d="M9.58 3.903v9.342l-.055.022a1.852 1.852 0 0 0-1.082 2.211c.183.675.767 1.2 1.465 1.324a1.896 1.896 0 0 0 1.604-.441 1.852 1.852 0 0 0 .273-2.476 1.852 1.852 0 0 0-.8-.619l-.051-.021V3.903s.048-.606-.677-.606c-.706 0-.677.606-.677.606z"/><path clip-path="url(#g)" fill="#DC1F26" d="M12.021 12.623v-2.525l.491.001V9.86l-.491-.001v-.998l.491.001v-.24l-.491-.001v-.998l.491.001v-.239l-.491-.001v-.998h.491v-.24h-.491v-.999l.491.001V4.91l-.491-.001v-.903c0-.033-.008-.063-.01-.095l.501.001v-.239l-.525-.001a1.758 1.758 0 0 0-1.729-1.406c-.855 0-1.569.605-1.727 1.405l-.623-.001v.239l.597.001c-.002.033-.009.063-.009.096v.902l-.588-.001v.24l.588.001v.998l-.588-.001v.239l.588.001v.999l-.588-.001v.239l.588.001v.998l-.588-.001v.239l.588.001v.998l-.588-.001v.239l.588.001v2.526a2.909 2.909 0 0 0-1.191 2.637c.13 1.372 1.233 2.478 2.618 2.629a2.966 2.966 0 0 0 2.432-.839 2.909 2.909 0 0 0-.334-4.427m-.002 4.094a2.503 2.503 0 0 1-2.044.705 2.476 2.476 0 0 1-2.199-2.207 2.447 2.447 0 0 1 1.088-2.276l.104-.07v-2.771l.355.001V9.86l-.355-.001v-.998l.355.001v-.24h-.355v-.999l.355.001v-.239l-.355-.001v-.998h.355v-.24h-.355v-.997h.355V4.91l-.355-.001v-.903c0-.033.008-.063.01-.095l.345.001v-.239l-.304-.001a1.286 1.286 0 1 1 2.477-.001l-.398-.001v.239l.44.001c.002.032.009.063.009.096v.902l-.449-.001v.24l.449.001v.998l-.449-.001v.239l.449.001v.998h-.449v.239h.449v.998h-.449v.239l.449.001v.998l-.449-.001v.239l.449.001v2.772l.104.07a2.444 2.444 0 0 1 1.098 2.041c0 .656-.259 1.273-.73 1.737"/><path clip-path="url(#g)" fill="none" stroke="#DC1F26" stroke-width=".15" stroke-miterlimit="10" d="M12.021 12.623v-2.525l.491.001V9.86l-.491-.001v-.998l.491.001v-.24l-.491-.001v-.998l.491.001v-.239l-.491-.001v-.998h.491v-.24h-.491v-.999l.491.001V4.91l-.491-.001v-.903c0-.033-.008-.063-.01-.095l.501.001v-.239l-.525-.001a1.758 1.758 0 0 0-1.729-1.406c-.855 0-1.569.605-1.727 1.405l-.623-.001v.239l.597.001c-.002.033-.009.063-.009.096v.902l-.588-.001v.24l.588.001v.998l-.588-.001v.239l.588.001v.999l-.588-.001v.239l.588.001v.998l-.588-.001v.239l.588.001v.998l-.588-.001v.239l.588.001v2.526a2.909 2.909 0 0 0-1.191 2.637c.13 1.372 1.233 2.478 2.618 2.629a2.966 2.966 0 0 0 2.432-.839 2.909 2.909 0 0 0-.334-4.427zm-.002 4.094a2.503 2.503 0 0 1-2.044.705 2.476 2.476 0 0 1-2.199-2.207 2.447 2.447 0 0 1 1.088-2.276l.104-.07v-2.771l.355.001V9.86l-.355-.001v-.998l.355.001v-.24h-.355v-.999l.355.001v-.239l-.355-.001v-.998h.355v-.24h-.355v-.997h.355V4.91l-.355-.001v-.903c0-.033.008-.063.01-.095l.345.001v-.239l-.304-.001a1.286 1.286 0 1 1 2.477-.001l-.398-.001v.239l.44.001c.002.032.009.063.009.096v.902l-.449-.001v.24l.449.001v.998l-.449-.001v.239l.449.001v.998h-.449v.239h.449v.998h-.449v.239l.449.001v.998l-.449-.001v.239l.449.001v2.772l.104.07a2.444 2.444 0 0 1 1.098 2.041c0 .656-.259 1.273-.73 1.737z"/></svg>