<svg xmlns="http://www.w3.org/2000/svg" xmlns:xlink="http://www.w3.org/1999/xlink" width="20.429" height="20.429" viewBox="0 0 20.429 20.429"><defs><path id="a" d="M0 0h20.429v20.429H0z"/></defs><clipPath id="b"><use xlink:href="#a" overflow="visible"/></clipPath><path clip-path="url(#b)" fill="none" stroke="#DC1F26" stroke-miterlimit="10" d="M10.215 19.929c5.365 0 9.715-4.35 9.715-9.714S15.58.5 10.215.5.5 4.85.5 10.215s4.35 9.714 9.715 9.714"/><path clip-path="url(#b)" fill="none" stroke="#DC1F26" stroke-width=".75" stroke-miterlimit="10" d="M11.755 6.616h-7.19c-.563 0-1.02 1.498-1.02 3.345s.457 3.344 1.02 3.344h10.819c.283 0 .539-.38.724-.994.439-.173.777-1.157.777-2.35s-.338-2.178-.777-2.35c-.185-.614-.44-.995-.724-.995h-3.629"/><circle clip-path="url(#b)" fill="none" stroke="#DC1F26" stroke-width=".5" stroke-miterlimit="10" cx="7.099" cy="10.031" r=".715"/><circle clip-path="url(#b)" fill="none" stroke="#DC1F26" stroke-width=".5" stroke-miterlimit="10" cx="9.963" cy="9.891" r=".715"/><circle clip-path="url(#b)" fill="none" stroke="#DC1F26" stroke-width=".5" stroke-miterlimit="10" cx="12.789" cy="9.891" r=".715"/></svg>