<svg xmlns="http://www.w3.org/2000/svg" xmlns:xlink="http://www.w3.org/1999/xlink" width="20.429" height="20.429" viewBox="0 0 20.429 20.429"><defs><path id="a" d="M0 0h20.429v20.429H0z"/></defs><clipPath id="b"><use xlink:href="#a" overflow="visible"/></clipPath><path clip-path="url(#b)" fill="none" stroke="#DC1F26" stroke-miterlimit="10" d="M10.215 19.929c5.364 0 9.715-4.349 9.715-9.715C19.93 4.849 15.579.5 10.215.5 4.85.5.5 4.85.5 10.214a9.714 9.714 0 0 0 9.715 9.715"/><path clip-path="url(#b)" fill="none" stroke="#DC1F26" stroke-width=".5" stroke-miterlimit="10" d="M10.215 17.312s-5.545-2.6-5.545-6.189V5.152s2.144-.738 5.545-.738 5.546.738 5.546.738v5.971c0 3.566-5.546 6.189-5.546 6.189z"/><path clip-path="url(#b)" fill="#DC1F26" d="M14.723 10.927V5.82s-1.717-.604-4.438-.604c-1.088 0-2.011.097-2.732.212.412-.032.856-.052 1.332-.052 2.754 0 5.22.765 5.22.765v4.39c0 3.146-3.82 5.458-3.82 5.458s4.438-2.145 4.438-5.062"/></svg>