<svg xmlns="http://www.w3.org/2000/svg" xmlns:xlink="http://www.w3.org/1999/xlink" width="21.098" height="21.097" viewBox="0 0 21.098 21.097"><defs><path id="a" d="M0 0h21.097v21.097H0z"/></defs><clipPath id="b"><use xlink:href="#a" overflow="visible"/></clipPath><path clip-path="url(#b)" fill="none" stroke="#DC1F26" stroke-miterlimit="10" d="M10.548 20.597c5.55 0 10.049-4.499 10.049-10.049C20.597 5 16.098.5 10.548.5S.5 5 .5 10.548c0 5.55 4.498 10.049 10.048 10.049"/><path clip-path="url(#b)" fill="none" stroke="#DC1F26" stroke-width=".5" stroke-miterlimit="10" d="M11.748 2.852l.586 2.934-1.905.405a.74.74 0 0 1-.878-.57l-.279-1.486a.74.74 0 0 1 .571-.878l1.905-.405zm1.361.536l-1.144.243m1.48 1.334l-1.145.243"/><path clip-path="url(#b)" fill="none" stroke="#DC1F26" stroke-width=".5" stroke-miterlimit="10" d="M14.757 6.968a6.155 6.155 0 0 1-6.746 9.92l-.712-.331A6.153 6.153 0 0 1 9.238 5.083"/></svg>