<svg xmlns="http://www.w3.org/2000/svg" xmlns:xlink="http://www.w3.org/1999/xlink" width="708.528" height="171.126" viewBox="0 0 708.528 171.126"><defs><path id="a" d="M0 0h708.528v171.126H0z"/></defs><clipPath id="b"><use xlink:href="#a" overflow="visible"/></clipPath><path clip-path="url(#b)" fill="#FFF" d="M655.704 54.693s6.18-3.695 17.645.33c10.307 3.614 21.085 6.56 35.18-5.824-12.307 6.467-16.669 4.416-30.476.736-14.013-3.734-22.349 4.758-22.349 4.758"/><path clip-path="url(#b)" fill="#FFF" d="M647.277 37.313l-15.501-5.231h22.193c.001 3.718-3.38 6.347-6.692 5.231m18.814 2.984h16.523c3.867-9.492 3.867-9.507-3.787-9.507h-19.282c-2.896-5.258-2.868-5.258-17.054-5.258H590.73l13.043 6.444c-19.262 22.217-13.4 36.773-6.39 51.076-1.985-9.677.222-22.705 12.004-30.382-7.587 15.222.71 31.775 17.615 37.745-5.087-7.455-8.201-18.773-1.772-28.951 0 23.151 25.029 29.278 41.386 29.278-14.753-6.127-22.007-16.828-22.243-26.347 5.545 5.444 14.894 7.204 23.388 5.707 1.893-.329 3.471-1.722 4.23-3.602l1.357-3.327c-10.453 2.854-24.862-.802-24.757-10.965.079-7.929 8.756-11.884 17.5-11.911M114.399 25.494c-8.336 0-15.396 1.38-21.179 4.156V0H0v12.57h29.829v77.566h15.408V12.571h32.429v77.566H93.22V57.823c0-6.587 1.327-11.345 3.968-14.277 3.333-3.656 9.072-5.482 17.211-5.482 8.132 0 13.824 1.826 17.058 5.482 2.65 2.932 3.971 7.69 3.971 14.277v32.314h15.546V57.889c0-21.601-12.187-32.395-36.575-32.395m61.562 25.923c1.617-9.411 8.806-14.184 21.37-14.184 12.471 0 19.615 4.773 21.238 14.181l.105.605h-42.818l.105-.602zm21.37 38.72h30.91V78.411h-30.91c-12.564 0-19.753-4.731-21.37-14.061l-.105-.605h57.556v-5.91c0-21.763-11.798-32.342-36.081-32.342-24.376 0-36.222 10.597-36.222 32.395 0 21.7 11.846 32.249 36.222 32.249m47.967-41.136v41.135H260.7V48.923c0-3.42 1.342-5.943 4.004-7.572 3.647-2.198 10.267-3.288 19.843-3.288h2.88v-12.57h-2.88c-26.161 0-39.249 7.836-39.249 23.508m272.44 0v41.138h15.409V48.923c0-3.42 1.325-5.943 3.993-7.572 3.657-2.198 10.271-3.288 19.841-3.288h2.881v-12.57h-2.881c-26.161 0-39.243 7.836-39.243 23.508M385.636 25.494c-13.027 0-22.663 3.261-28.883 9.755-6.317-6.494-15.994-9.755-29.029-9.755-24.388 0-36.574 10.794-36.574 32.395v32.248h15.393V57.823c0-6.587 1.335-11.345 4.003-14.277 3.255-3.656 8.986-5.482 17.178-5.482 8.196 0 13.974 1.826 17.328 5.482 2.668 2.932 3.998 7.69 3.998 14.277v32.314h15.408V57.823c0-6.587 1.341-11.345 3.993-14.277 3.262-3.656 8.98-5.482 17.185-5.482 8.191 0 13.975 1.826 17.328 5.482 2.671 2.932 3.997 7.69 3.997 14.277v32.314h15.407V57.889c0-21.601-12.252-32.395-36.732-32.395m100.85 47.132c-3.246 3.615-8.978 5.429-17.169 5.429-8.204 0-13.937-1.814-17.186-5.429-2.668-2.958-3.993-7.781-3.993-14.447 0-6.668 1.325-11.477 3.993-14.45 3.249-3.707 8.981-5.548 17.186-5.548 8.191 0 13.923 1.841 17.169 5.548 2.671 2.973 3.997 7.782 3.997 14.45 0 6.667-1.326 11.489-3.997 14.447m-17.169-47.131c-24.493 0-36.733 10.899-36.733 32.685 0 21.705 12.24 32.551 36.733 32.551 24.388 0 36.575-10.846 36.575-32.551.001-21.786-12.187-32.685-36.575-32.685"/><path clip-path="url(#b)" d="M23.894 151.732v-.105c0-10.662 7.974-19.51 19.064-19.51 6.842 0 10.938 2.431 14.711 5.982l-2.913 3.129c-3.18-3.013-6.731-5.181-11.851-5.181-8.348 0-14.594 6.798-14.594 15.46v.119c0 8.729 6.296 15.567 14.594 15.567 5.174 0 8.566-2 12.168-5.443l2.812 2.749c-3.937 3.994-8.243 6.626-15.085 6.626-10.872.001-18.906-8.56-18.906-19.393m42.071-20.575h4.153v16.315c1.829-3.024 4.74-5.443 9.534-5.443 6.737 0 10.668 4.523 10.668 11.162v17.289h-4.156v-16.276c0-5.153-2.793-8.4-7.704-8.4-4.791 0-8.342 3.511-8.342 8.729v15.947h-4.153v-39.323zm52.964 29.082v-2.695c-2.051-.593-4.8-1.186-8.192-1.186-5.22 0-8.13 2.265-8.13 5.772v.105c0 3.497 3.234 5.548 7.007 5.548 5.108.001 9.315-3.139 9.315-7.544m-20.517 2.156v-.104c0-5.879 4.839-9.008 11.899-9.008 3.555 0 6.085.5 8.564 1.197v-.973c0-5.009-3.075-7.585-8.288-7.585-3.294 0-5.878.854-8.462 2.036l-1.234-3.392c3.063-1.393 6.085-2.315 10.115-2.315 3.938 0 6.956 1.027 9.001 3.079 1.886 1.88 2.853 4.56 2.853 8.123v17.025h-3.985v-4.207c-1.937 2.539-5.165 4.8-10.07 4.8-5.168.001-10.393-2.958-10.393-8.676m35.017-31.24h4.153v39.322h-4.153zm35.55 23.864c-.422-5.06-3.332-9.491-8.886-9.491-4.854 0-8.507 4.048-9.052 9.491h17.938zm-22.133 1.617v-.104c0-8.035 5.653-14.501 13.357-14.501 8.244 0 12.983 6.571 12.983 14.709 0 .527 0 .856-.053 1.342h-22.092c.596 6.036 4.856 9.426 9.812 9.426 3.815 0 6.515-1.551 8.776-3.932l2.578 2.331c-2.794 3.128-6.186 5.218-11.465 5.218-7.65 0-13.896-5.878-13.896-14.489m34.537 3.286v-17.301h4.141v16.277c0 5.165 2.809 8.398 7.711 8.398 4.733 0 8.341-3.509 8.341-8.728V142.62h4.102v27.859h-4.102v-4.852c-1.886 3.01-4.739 5.444-9.53 5.444-6.732.002-10.663-4.522-10.663-11.149m34.965-17.301h4.147v7.27c2.051-4.626 6.082-7.953 11.373-7.755v4.482h-.336c-6.079 0-11.037 4.365-11.037 12.752v11.109h-4.147v-27.858zm38.962 14.067v-.105c0-7.862 6.132-14.555 14.271-14.555 5.272 0 8.566 2.21 11.15 4.971l-2.742 2.893c-2.216-2.312-4.696-4.181-8.459-4.181-5.657 0-9.968 4.785-9.968 10.768v.104c0 6.034 4.414 10.821 10.228 10.821 3.563 0 6.306-1.775 8.522-4.155l2.641 2.485c-2.806 3.116-6.153 5.39-11.372 5.39-8.14 0-14.271-6.627-14.271-14.436m56.08 0v-.105c0-5.982-4.48-10.872-10.348-10.872-6.034 0-10.163 4.89-10.163 10.768v.104c0 5.983 4.398 10.821 10.273 10.821 6.037 0 10.238-4.838 10.238-10.716m-24.784 0v-.105c0-7.862 6.147-14.555 14.546-14.555 8.348 0 14.49 6.575 14.49 14.45v.104c0 7.863-6.193 14.541-14.6 14.541-8.343.001-14.436-6.572-14.436-14.435m37.877-14.067h4.141v4.854c1.841-3.027 4.752-5.443 9.537-5.443 6.739 0 10.671 4.521 10.671 11.159v17.289h-4.156v-16.274c0-5.156-2.794-8.401-7.698-8.401-4.791 0-8.354 3.509-8.354 8.731v15.944h-4.141v-27.859zm34.531 0h4.162v4.854c1.832-3.027 4.739-5.443 9.537-5.443 6.719 0 10.65 4.521 10.65 11.159v17.289h-4.142v-16.274c0-5.156-2.803-8.401-7.704-8.401-4.787 0-8.342 3.509-8.342 8.731v15.944h-4.162v-27.859zm54.956 12.398c-.428-5.06-3.326-9.491-8.881-9.491-4.859 0-8.514 4.048-9.046 9.491h17.927zm-22.127 1.617v-.104c0-8.035 5.651-14.501 13.355-14.501 8.229 0 12.976 6.571 12.976 14.709 0 .527 0 .856-.051 1.342h-22.08c.584 6.036 4.845 9.426 9.795 9.426 3.826 0 6.526-1.551 8.788-3.932l2.584 2.331c-2.809 3.128-6.201 5.218-11.478 5.218-7.654 0-13.889-5.878-13.889-14.489m33.242.052v-.105c0-7.862 6.138-14.555 14.271-14.555 5.279 0 8.563 2.21 11.147 4.971l-2.733 2.893c-2.21-2.312-4.692-4.181-8.465-4.181-5.657 0-9.968 4.785-9.968 10.768v.104c0 6.034 4.419 10.821 10.228 10.821 3.563 0 6.318-1.775 8.528-4.155l2.623 2.485c-2.797 3.116-6.142 5.39-11.36 5.39-8.133 0-14.271-6.627-14.271-14.436m35.294 6.404v-16.804h-3.894v-3.668h3.894v-8.387h4.135v8.387h8.839v3.668h-8.839v16.277c0 3.393 1.886 4.629 4.691 4.629 1.401 0 2.584-.278 4.049-.974v3.549c-1.465.764-3.036 1.183-5.016 1.183-4.476 0-7.859-2.195-7.859-7.86m35.813-32.473l4.312 1.984-6.135 5.824h-3.229l5.052-7.808zm5.447 24.4c-.425-5.06-3.339-9.491-8.893-9.491-4.845 0-8.513 4.048-9.046 9.491h17.939zm-22.146 1.617v-.104c0-8.035 5.674-14.501 13.363-14.501 8.252 0 12.978 6.571 12.978 14.709 0 .527 0 .856-.051 1.342H483.7c.593 6.036 4.858 9.426 9.81 9.426 3.817 0 6.512-1.551 8.775-3.932l2.581 2.331c-2.79 3.128-6.191 5.218-11.465 5.218-7.65 0-13.908-5.878-13.908-14.489m55.393-1.617c-.43-5.06-3.344-9.491-8.892-9.491-4.845 0-8.513 4.048-9.052 9.491h17.944zm-22.151 1.617v-.104c0-8.035 5.662-14.501 13.363-14.501 8.237 0 12.983 6.571 12.983 14.709 0 .527 0 .856-.06 1.342h-22.08c.593 6.036 4.845 9.426 9.794 9.426 3.839 0 6.527-1.551 8.788-3.932l2.588 2.331c-2.794 3.128-6.188 5.218-11.481 5.218-7.637 0-13.895-5.878-13.895-14.489"/></svg>