<svg xmlns="http://www.w3.org/2000/svg" width="56" height="65pt" viewBox="0 0 42 65"><path d="M21.484.375C10.777.371 5.398 5.863 2.77 12.031.69 16.906.332 22.2.41 25.531c.067 2.696.938 5.871 2.297 9.227 5.45 13.469 18.7 29.847 18.7 29.847s12.429-15.656 18.347-29.82c2.86-6.836 2.695-16.594-.566-23.234C36.27 5.609 30.96.203 21.483.375" fill="#ee3524"/><path d="M121.233 2.14c-60.418-.022-90.77 31.326-105.605 66.53C3.902 96.497 1.874 126.707 2.314 145.726c.375 15.384 5.29 33.51 12.961 52.662 30.75 76.875 105.517 170.361 105.517 170.361s70.14-89.36 103.534-170.205c16.135-39.017 15.209-94.712-3.197-132.615C204.664 32.017 174.71 1.16 121.233 2.14zm0 0" transform="scale(.17722 .1752)" fill="none" stroke-width="3" stroke="#ee3524" stroke-miterlimit="10"/><path d="M24.723 24.523s1.578-.933 4.507.082c2.633.915 5.387 1.657 8.989-1.472-3.145 1.637-4.258 1.117-7.785.187-3.582-.941-5.711 1.203-5.711 1.203" fill="#fff"/><path d="M22.57 20.133l-3.96-1.32h5.667c0 .937-.863 1.601-1.707 1.32m4.805.754h4.223c.988-2.399.988-2.403-.97-2.403h-4.925c-.742-1.328-.734-1.328-4.355-1.328H8.12l3.332 1.63C6.53 24.395 8.03 28.074 9.819 31.687c-.508-2.445.059-5.738 3.067-7.675-1.938 3.843.183 8.027 4.5 9.535-1.297-1.883-2.094-4.742-.453-7.313 0 5.848 6.398 7.395 10.578 7.395-3.77-1.547-5.625-4.25-5.684-6.656 1.414 1.375 3.805 1.82 5.973 1.441.484-.082.887-.434 1.082-.91l.347-.84c-2.671.723-6.351-.203-6.324-2.77.02-2.003 2.235-3 4.469-3.007" fill="#fff"/></svg>