<?xml version="1.0" encoding="utf-8"?>
<!-- Generator: Adobe Illustrator 16.0.0, SVG Export Plug-In . SVG Version: 6.00 Build 0)  -->
<!DOCTYPE svg PUBLIC "-//W3C//DTD SVG 1.1//EN" "http://www.w3.org/Graphics/SVG/1.1/DTD/svg11.dtd">
<svg version="1.1" id="Layer_1" xmlns="http://www.w3.org/2000/svg" xmlns:xlink="http://www.w3.org/1999/xlink" x="0px" y="0px"
	 width="20.429px" height="20.429px" viewBox="0 0 20.429 20.429" enable-background="new 0 0 20.429 20.429" xml:space="preserve">
<g>
	<defs>
		<rect id="SVGID_1_" width="20.429" height="20.429"/>
	</defs>
	<clipPath id="SVGID_2_">
		<use xlink:href="#SVGID_1_"  overflow="visible"/>
	</clipPath>
	<path clip-path="url(#SVGID_2_)" fill="none" stroke="#DC1F26" stroke-miterlimit="10" d="M10.215,19.929
		c5.365,0,9.715-4.349,9.715-9.714c0-5.366-4.35-9.715-9.715-9.715S0.5,4.849,0.5,10.215C0.5,15.581,4.85,19.929,10.215,19.929"/>
	<path clip-path="url(#SVGID_2_)" fill="none" stroke="#DC1F26" stroke-width="0.5" stroke-miterlimit="10" d="M11.478,8.087V4.564
		c0-0.563-1.498-1.019-3.345-1.019S4.787,4.001,4.787,4.564v10.819c0,0.284,0.38,0.54,0.995,0.725
		c0.173,0.439,1.157,0.776,2.35,0.776s2.177-0.337,2.35-0.776c0.613-0.185,0.995-0.44,0.995-0.725v-3.629"/>
	
		<ellipse clip-path="url(#SVGID_2_)" fill="none" stroke="#DC1F26" stroke-width="0.25" stroke-miterlimit="10" cx="8.246" cy="15.332" rx="0.458" ry="0.2"/>
	
		<circle clip-path="url(#SVGID_2_)" fill="none" stroke="#DC1F26" stroke-width="0.25" stroke-miterlimit="10" cx="8.386" cy="6.086" r="0.715"/>
	<path clip-path="url(#SVGID_2_)" fill="#FFFFFF" d="M13.147,14.175c-0.136-0.062-3.293-1.529-3.293-3.637V7.191
		c0-0.078,0.05-0.148,0.124-0.173C10.03,7,11.26,6.594,13.223,6.594c1.962,0,3.193,0.407,3.244,0.424
		c0.075,0.025,0.124,0.095,0.124,0.173v3.348c0,2.093-3.157,3.575-3.292,3.637C13.251,14.198,13.195,14.198,13.147,14.175"/>
	<path clip-path="url(#SVGID_2_)" fill="none" stroke="#DC1F26" stroke-width="0.5" stroke-miterlimit="10" d="M13.147,14.175
		c-0.136-0.062-3.293-1.529-3.293-3.637V7.191c0-0.078,0.05-0.148,0.124-0.173C10.03,7,11.26,6.594,13.223,6.594
		c1.962,0,3.193,0.407,3.244,0.424c0.075,0.025,0.124,0.095,0.124,0.173v3.348c0,2.093-3.157,3.575-3.292,3.637
		C13.251,14.198,13.195,14.198,13.147,14.175"/>
	<path clip-path="url(#SVGID_2_)" fill="#DC1F26" d="M15.799,10.426V7.575c0,0-0.975-0.337-2.519-0.337
		c-0.615,0-1.139,0.053-1.548,0.118c0.233-0.018,0.485-0.029,0.755-0.029c1.563,0,2.96,0.427,2.96,0.427v2.451
		c0,1.756-2.167,3.048-2.167,3.048S15.799,12.055,15.799,10.426"/>
	<path clip-path="url(#SVGID_2_)" fill="none" stroke="#DC1F26" stroke-width="0.25" stroke-miterlimit="10" d="M15.799,10.426
		V7.575c0,0-0.975-0.337-2.519-0.337c-0.615,0-1.139,0.053-1.548,0.118c0.233-0.018,0.485-0.029,0.755-0.029
		c1.563,0,2.96,0.427,2.96,0.427v2.451c0,1.756-2.167,3.048-2.167,3.048S15.799,12.055,15.799,10.426z"/>
</g>
</svg>
