<?xml version="1.0" encoding="utf-8"?>
<!-- Generator: Adobe Illustrator 16.0.0, SVG Export Plug-In . SVG Version: 6.00 Build 0)  -->
<!DOCTYPE svg PUBLIC "-//W3C//DTD SVG 1.1//EN" "http://www.w3.org/Graphics/SVG/1.1/DTD/svg11.dtd">
<svg version="1.1" id="Layer_1" xmlns="http://www.w3.org/2000/svg" xmlns:xlink="http://www.w3.org/1999/xlink" x="0px" y="0px"
	 width="20.43px" height="20.429px" viewBox="0 0 20.43 20.429" enable-background="new 0 0 20.43 20.429" xml:space="preserve">
<g>
	<path fill="none" stroke="#EF3A2E" stroke-miterlimit="10" d="M0.5,10.214c0,5.366,4.35,9.715,9.715,9.715"/>
	<path fill="none" stroke="#EF3A2E" stroke-miterlimit="10" d="M10.215,0.5C4.85,0.5,0.5,4.85,0.5,10.214"/>
	<path fill="none" stroke="#EF3A2E" stroke-miterlimit="10" d="M10.215,19.929c5.365,0,9.715-4.35,9.715-9.715
		c0-5.364-4.35-9.714-9.715-9.714"/>
	<path fill="none" stroke="#EF3A2E" stroke-width="0.5" stroke-miterlimit="10" d="M11.477,8.087V4.564
		c0-0.563-1.498-1.02-3.344-1.02c-1.847,0-3.345,0.457-3.345,1.02v10.818c0,0.283,0.38,0.539,0.995,0.727
		c0.173,0.438,1.157,0.775,2.35,0.775c1.193,0,2.177-0.338,2.35-0.775c0.613-0.188,0.994-0.443,0.994-0.727v-3.629"/>
	<ellipse fill="none" stroke="#EF3A2E" stroke-width="0.25" stroke-miterlimit="10" cx="8.133" cy="15.398" rx="0.458" ry="0.201"/>
	<circle fill="none" stroke="#EF3A2E" stroke-width="0.25" stroke-miterlimit="10" cx="8.132" cy="5.7" r="0.715"/>
	<path fill="#FFFFFF" d="M13.147,13.998c-0.135-0.063-3.292-1.531-3.292-3.639V7.012c0-0.078,0.05-0.148,0.124-0.173
		c0.052-0.018,1.284-0.424,3.245-0.424s3.193,0.406,3.244,0.424c0.075,0.025,0.125,0.095,0.125,0.173v3.347
		c0,2.094-3.158,3.576-3.293,3.637C13.251,14.019,13.196,14.019,13.147,13.998"/>
	<path fill="none" stroke="#DC1F26" stroke-width="0.5" stroke-miterlimit="10" d="M13.147,13.998
		c-0.135-0.063-3.292-1.531-3.292-3.639V7.012c0-0.078,0.05-0.148,0.124-0.173c0.052-0.018,1.284-0.424,3.245-0.424
		s3.193,0.406,3.244,0.424c0.075,0.025,0.125,0.095,0.125,0.173v3.347c0,2.094-3.158,3.576-3.293,3.637
		C13.251,14.019,13.196,14.019,13.147,13.998"/>
	<path fill="none" stroke="#EF3A2E" stroke-width="0.5" stroke-miterlimit="10" d="M13.147,13.998
		c-0.135-0.063-3.292-1.531-3.292-3.639V7.012c0-0.078,0.05-0.148,0.124-0.173c0.052-0.018,1.284-0.424,3.245-0.424
		s3.193,0.406,3.244,0.424c0.075,0.025,0.125,0.095,0.125,0.173v3.347c0,2.094-3.158,3.576-3.293,3.637
		C13.251,14.019,13.196,14.019,13.147,13.998z"/>
	<path fill="#DC1F26" d="M15.799,10.395V7.543c0,0-0.973-0.337-2.519-0.337c-0.616,0-1.139,0.054-1.548,0.119
		c0.232-0.019,0.484-0.03,0.755-0.03c1.562,0,2.96,0.428,2.96,0.428v2.45c0,1.757-2.167,3.048-2.167,3.048
		S15.799,12.025,15.799,10.395"/>
	<path fill="none" stroke="#EF3A2E" stroke-width="0.25" stroke-miterlimit="10" d="M15.799,10.395V7.543
		c0,0-0.973-0.337-2.519-0.337c-0.616,0-1.139,0.054-1.548,0.119c0.232-0.019,0.484-0.03,0.755-0.03c1.562,0,2.96,0.428,2.96,0.428
		v2.45c0,1.757-2.167,3.048-2.167,3.048S15.799,12.025,15.799,10.395z"/>
</g>
</svg>
