<?xml version="1.0" encoding="utf-8"?>
<!-- Generator: Adobe Illustrator 16.0.0, SVG Export Plug-In . SVG Version: 6.00 Build 0)  -->
<!DOCTYPE svg PUBLIC "-//W3C//DTD SVG 1.1//EN" "http://www.w3.org/Graphics/SVG/1.1/DTD/svg11.dtd">
<svg version="1.1" id="Layer_1" xmlns="http://www.w3.org/2000/svg" xmlns:xlink="http://www.w3.org/1999/xlink" x="0px" y="0px"
	 width="20.429px" height="20.429px" viewBox="0 0 20.429 20.429" enable-background="new 0 0 20.429 20.429" xml:space="preserve">
<g>
	<defs>
		<rect id="SVGID_1_" width="20.429" height="20.429"/>
	</defs>
	<clipPath id="SVGID_2_">
		<use xlink:href="#SVGID_1_"  overflow="visible"/>
	</clipPath>
	<path clip-path="url(#SVGID_2_)" fill="none" stroke="#DC1F26" stroke-miterlimit="10" d="M10.215,19.929
		c5.365,0,9.714-4.349,9.714-9.714c0-5.366-4.349-9.715-9.714-9.715C4.85,0.5,0.5,4.849,0.5,10.215
		C0.5,15.581,4.85,19.929,10.215,19.929"/>
</g>
<g>
	<defs>
		<path id="SVGID_3_" d="M9.581,3.903v9.342l-0.055,0.023c-0.86,0.357-1.333,1.281-1.082,2.21c0.182,0.676,0.766,1.2,1.464,1.325
			c0.591,0.104,1.167-0.057,1.604-0.442c0.677-0.598,0.861-1.635,0.274-2.476c-0.196-0.278-0.484-0.484-0.801-0.618l-0.051-0.022
			V3.903c0,0,0.049-0.606-0.677-0.606C9.551,3.297,9.581,3.903,9.581,3.903"/>
	</defs>
	<clipPath id="SVGID_4_">
		<use xlink:href="#SVGID_3_"  overflow="visible"/>
	</clipPath>
	
		<linearGradient id="SVGID_5_" gradientUnits="userSpaceOnUse" x1="0" y1="20.4351" x2="1" y2="20.4351" gradientTransform="matrix(0.1667 14.6667 14.6667 -0.1667 -289.4955 7.6309)">
		<stop  offset="0" style="stop-color:#FFFFFF"/>
		<stop  offset="1" style="stop-color:#ED1C24"/>
	</linearGradient>
	<polygon clip-path="url(#SVGID_4_)" fill="url(#SVGID_5_)" points="12.372,3.25 12.527,16.907 8.193,16.956 8.039,3.299 	"/>
</g>
<g>
	<defs>
		<rect id="SVGID_6_" width="20.429" height="20.429"/>
	</defs>
	<clipPath id="SVGID_7_">
		<use xlink:href="#SVGID_6_"  overflow="visible"/>
	</clipPath>
	<path clip-path="url(#SVGID_7_)" fill="none" stroke="#DC1F26" stroke-width="0.25" stroke-miterlimit="10" d="M9.58,3.903v9.342
		l-0.055,0.022c-0.859,0.358-1.333,1.282-1.082,2.211c0.183,0.675,0.767,1.2,1.465,1.324c0.591,0.104,1.167-0.056,1.604-0.441
		c0.676-0.598,0.861-1.635,0.273-2.476c-0.195-0.278-0.483-0.484-0.8-0.619l-0.051-0.021V3.903c0,0,0.048-0.606-0.677-0.606
		C9.551,3.297,9.58,3.903,9.58,3.903z"/>
	<path clip-path="url(#SVGID_7_)" fill="#DC1F26" d="M12.021,12.623v-2.525l0.491,0.001V9.86l-0.491-0.001V8.861l0.491,0.001v-0.24
		l-0.491-0.001V7.623l0.491,0.001V7.385l-0.491-0.001V6.386h0.491V6.146h-0.491V5.147l0.491,0.001V4.91l-0.491-0.001V4.006
		c0-0.033-0.008-0.063-0.01-0.095l0.501,0.001V3.673l-0.525-0.001c-0.157-0.8-0.873-1.406-1.729-1.406
		c-0.855,0-1.569,0.605-1.727,1.405L7.908,3.67v0.239L8.505,3.91C8.503,3.943,8.496,3.973,8.496,4.006v0.902L7.908,4.907v0.24
		l0.588,0.001v0.998L7.908,6.145v0.239l0.588,0.001v0.999L7.908,7.383v0.239l0.588,0.001v0.998L7.908,8.62v0.239L8.496,8.86v0.998
		L7.908,9.857v0.239l0.588,0.001v2.526c-0.836,0.606-1.29,1.605-1.191,2.637c0.13,1.372,1.233,2.478,2.618,2.629
		c0.113,0.012,0.225,0.018,0.334,0.018c0.793,0,1.538-0.304,2.098-0.857c0.561-0.553,0.868-1.287,0.868-2.068
		C13.223,14.043,12.776,13.172,12.021,12.623 M12.019,16.717c-0.535,0.529-1.273,0.787-2.044,0.705
		c-1.164-0.127-2.089-1.055-2.199-2.207c-0.086-0.902,0.331-1.775,1.088-2.276l0.104-0.07v-2.771l0.355,0.001V9.86L8.968,9.859
		V8.861l0.355,0.001v-0.24H8.968V7.623l0.355,0.001V7.385L8.968,7.384V6.386h0.355V6.146H8.968V5.149h0.355V4.91L8.968,4.909V4.006
		c0-0.033,0.008-0.063,0.01-0.095l0.345,0.001V3.673L9.019,3.672c0.15-0.539,0.646-0.938,1.238-0.938
		c0.593,0,1.088,0.399,1.239,0.937L11.098,3.67v0.239l0.44,0.001c0.002,0.032,0.009,0.063,0.009,0.096v0.902l-0.449-0.001v0.24
		l0.449,0.001v0.998l-0.449-0.001v0.239l0.449,0.001v0.998h-0.449v0.239h0.449V8.62h-0.449v0.239l0.449,0.001v0.998l-0.449-0.001
		v0.239l0.449,0.001v2.772l0.104,0.07c0.688,0.456,1.098,1.219,1.098,2.041C12.749,15.636,12.49,16.253,12.019,16.717"/>
	<path clip-path="url(#SVGID_7_)" fill="none" stroke="#DC1F26" stroke-width="0.15" stroke-miterlimit="10" d="M12.021,12.623
		v-2.525l0.491,0.001V9.86l-0.491-0.001V8.861l0.491,0.001v-0.24l-0.491-0.001V7.623l0.491,0.001V7.385l-0.491-0.001V6.386h0.491
		V6.146h-0.491V5.147l0.491,0.001V4.91l-0.491-0.001V4.006c0-0.033-0.008-0.063-0.01-0.095l0.501,0.001V3.673l-0.525-0.001
		c-0.157-0.8-0.873-1.406-1.729-1.406c-0.855,0-1.569,0.605-1.727,1.405L7.908,3.67v0.239L8.505,3.91
		C8.503,3.943,8.496,3.973,8.496,4.006v0.902L7.908,4.907v0.24l0.588,0.001v0.998L7.908,6.145v0.239l0.588,0.001v0.999L7.908,7.383
		v0.239l0.588,0.001v0.998L7.908,8.62v0.239L8.496,8.86v0.998L7.908,9.857v0.239l0.588,0.001v2.526
		c-0.836,0.606-1.29,1.605-1.191,2.637c0.13,1.372,1.233,2.478,2.618,2.629c0.113,0.012,0.225,0.018,0.334,0.018
		c0.793,0,1.538-0.304,2.098-0.857c0.561-0.553,0.868-1.287,0.868-2.068C13.223,14.043,12.776,13.172,12.021,12.623z M12.019,16.717
		c-0.535,0.529-1.273,0.787-2.044,0.705c-1.164-0.127-2.089-1.055-2.199-2.207c-0.086-0.902,0.331-1.775,1.088-2.276l0.104-0.07
		v-2.771l0.355,0.001V9.86L8.968,9.859V8.861l0.355,0.001v-0.24H8.968V7.623l0.355,0.001V7.385L8.968,7.384V6.386h0.355V6.146H8.968
		V5.149h0.355V4.91L8.968,4.909V4.006c0-0.033,0.008-0.063,0.01-0.095l0.345,0.001V3.673L9.019,3.672
		c0.15-0.539,0.646-0.938,1.238-0.938c0.593,0,1.088,0.399,1.239,0.937L11.098,3.67v0.239l0.44,0.001
		c0.002,0.032,0.009,0.063,0.009,0.096v0.902l-0.449-0.001v0.24l0.449,0.001v0.998l-0.449-0.001v0.239l0.449,0.001v0.998h-0.449
		v0.239h0.449V8.62h-0.449v0.239l0.449,0.001v0.998l-0.449-0.001v0.239l0.449,0.001v2.772l0.104,0.07
		c0.688,0.456,1.098,1.219,1.098,2.041C12.749,15.636,12.49,16.253,12.019,16.717z"/>
</g>
</svg>
