<?xml version="1.0" encoding="utf-8"?>
<!-- Generator: Adobe Illustrator 16.0.0, SVG Export Plug-In . SVG Version: 6.00 Build 0)  -->
<!DOCTYPE svg PUBLIC "-//W3C//DTD SVG 1.1//EN" "http://www.w3.org/Graphics/SVG/1.1/DTD/svg11.dtd">
<svg version="1.1" id="Layer_1" xmlns="http://www.w3.org/2000/svg" xmlns:xlink="http://www.w3.org/1999/xlink" x="0px" y="0px"
	 width="20.429px" height="20.429px" viewBox="0 0 20.429 20.429" enable-background="new 0 0 20.429 20.429" xml:space="preserve">
<g>
	<defs>
		<rect id="SVGID_1_" width="20.429" height="20.429"/>
	</defs>
	<clipPath id="SVGID_2_">
		<use xlink:href="#SVGID_1_"  overflow="visible"/>
	</clipPath>
	<path clip-path="url(#SVGID_2_)" fill="none" stroke="#DC1F26" stroke-miterlimit="10" d="M10.215,19.929
		c5.365,0,9.715-4.35,9.715-9.714S15.58,0.5,10.215,0.5S0.5,4.85,0.5,10.215S4.85,19.929,10.215,19.929"/>
	<path clip-path="url(#SVGID_2_)" fill="none" stroke="#DC1F26" stroke-width="0.75" stroke-miterlimit="10" d="M11.755,6.616h-7.19
		c-0.563,0-1.02,1.498-1.02,3.345s0.457,3.344,1.02,3.344h10.819c0.283,0,0.539-0.38,0.724-0.994
		c0.439-0.173,0.777-1.157,0.777-2.35s-0.338-2.178-0.777-2.35c-0.185-0.614-0.44-0.995-0.724-0.995H11.755"/>
	
		<circle clip-path="url(#SVGID_2_)" fill="none" stroke="#DC1F26" stroke-width="0.5" stroke-miterlimit="10" cx="7.099" cy="10.031" r="0.715"/>
	
		<circle clip-path="url(#SVGID_2_)" fill="none" stroke="#DC1F26" stroke-width="0.5" stroke-miterlimit="10" cx="9.963" cy="9.891" r="0.715"/>
	
		<circle clip-path="url(#SVGID_2_)" fill="none" stroke="#DC1F26" stroke-width="0.5" stroke-miterlimit="10" cx="12.789" cy="9.891" r="0.715"/>
</g>
</svg>
