<?xml version="1.0" encoding="utf-8"?>
<!-- Generator: Adobe Illustrator 16.0.0, SVG Export Plug-In . SVG Version: 6.00 Build 0)  -->
<!DOCTYPE svg PUBLIC "-//W3C//DTD SVG 1.1//EN" "http://www.w3.org/Graphics/SVG/1.1/DTD/svg11.dtd">
<svg version="1.1" id="Layer_1" xmlns="http://www.w3.org/2000/svg" xmlns:xlink="http://www.w3.org/1999/xlink" x="0px" y="0px"
	 width="20.43px" height="20.429px" viewBox="0 0 20.43 20.429" enable-background="new 0 0 20.43 20.429" xml:space="preserve">
<g>
	<path fill="none" stroke="#EF3A2E" stroke-miterlimit="10" d="M10.215,19.929c5.364,0,9.715-4.35,9.715-9.715
		c0-5.364-4.351-9.714-9.715-9.714C4.85,0.5,0.5,4.85,0.5,10.214C0.5,15.58,4.85,19.929,10.215,19.929"/>
	<path fill="none" stroke="#EF3A2E" stroke-width="0.75" stroke-miterlimit="10" d="M11.755,6.869h-7.19
		c-0.563,0-1.02,1.497-1.02,3.345c0,1.846,0.457,3.344,1.02,3.344h10.819c0.283,0,0.539-0.381,0.725-0.994
		c0.439-0.172,0.776-1.158,0.776-2.35c0-1.193-0.337-2.177-0.776-2.351c-0.186-0.613-0.441-0.994-0.725-0.994H11.755"/>
	<circle fill="none" stroke="#EF3A2E" stroke-width="0.5" stroke-miterlimit="10" cx="8.099" cy="10.214" r="0.715"/>
	<circle fill="none" stroke="#EF3A2E" stroke-width="0.5" stroke-miterlimit="10" cx="9.964" cy="10.214" r="0.715"/>
	<circle fill="none" stroke="#EF3A2E" stroke-width="0.5" stroke-miterlimit="10" cx="12.79" cy="10.214" r="0.715"/>
</g>
</svg>
