<?xml version="1.0" encoding="utf-8"?>
<!-- Generator: Adobe Illustrator 16.0.0, SVG Export Plug-In . SVG Version: 6.00 Build 0)  -->
<!DOCTYPE svg PUBLIC "-//W3C//DTD SVG 1.1//EN" "http://www.w3.org/Graphics/SVG/1.1/DTD/svg11.dtd">
<svg version="1.1" id="Layer_1" xmlns="http://www.w3.org/2000/svg" xmlns:xlink="http://www.w3.org/1999/xlink" x="0px" y="0px"
	 width="20.43px" height="20.429px" viewBox="0 0 20.43 20.429" enable-background="new 0 0 20.43 20.429" xml:space="preserve">
<g>
	<path fill="none" stroke="#EF3A2E" stroke-miterlimit="10" d="M10.215,19.929c5.364,0,9.715-4.35,9.715-9.715
		c0-5.365-4.351-9.714-9.715-9.714C4.85,0.5,0.5,4.849,0.5,10.214C0.5,15.58,4.85,19.929,10.215,19.929"/>
	<path fill="none" stroke="#EF3A2E" stroke-width="0.5" stroke-miterlimit="10" d="M10.215,16.664c0,0-5.545-2.6-5.545-6.189V4.503
		c0,0,2.144-0.738,5.545-0.738s5.546,0.738,5.546,0.738v5.971C15.761,14.041,10.215,16.664,10.215,16.664z"/>
	<path fill="#DC1F26" d="M14.723,10.538V5.432c0,0-1.717-0.605-4.438-0.605c-1.088,0-2.011,0.097-2.731,0.213
		c0.411-0.033,0.855-0.053,1.332-0.053c2.754,0,5.22,0.766,5.22,0.766v4.389c0,3.146-3.82,5.457-3.82,5.457
		S14.723,13.457,14.723,10.538"/>
	<path fill="none" stroke="#EF3A2E" stroke-width="0.25" stroke-miterlimit="10" d="M14.723,10.538V5.432
		c0,0-1.717-0.605-4.438-0.605c-1.088,0-2.011,0.097-2.731,0.213c0.411-0.033,0.855-0.053,1.332-0.053
		c2.754,0,5.22,0.766,5.22,0.766v4.389c0,3.146-3.82,5.457-3.82,5.457S14.723,13.457,14.723,10.538z"/>
</g>
</svg>
