<?xml version="1.0" encoding="utf-8"?>
<!-- Generator: Adobe Illustrator 16.0.0, SVG Export Plug-In . SVG Version: 6.00 Build 0)  -->
<!DOCTYPE svg PUBLIC "-//W3C//DTD SVG 1.1//EN" "http://www.w3.org/Graphics/SVG/1.1/DTD/svg11.dtd">
<svg version="1.1" id="Layer_1" xmlns="http://www.w3.org/2000/svg" xmlns:xlink="http://www.w3.org/1999/xlink" x="0px" y="0px"
	 width="21.098px" height="21.099px" viewBox="0 0 21.098 21.099" enable-background="new 0 0 21.098 21.099" xml:space="preserve">
<g>
	<path fill="none" stroke="#EF3A2E" stroke-miterlimit="10" d="M10.549,0.5C4.999,0.5,0.5,5,0.5,10.549s4.499,10.049,10.049,10.049"
		/>
	<path fill="none" stroke="#EF3A2E" stroke-miterlimit="10" d="M20.598,10.549C20.598,5,16.098,0.5,10.549,0.5"/>
	<path fill="none" stroke="#EF3A2E" stroke-miterlimit="10" d="M10.549,20.599c5.549,0,10.049-4.5,10.049-10.049"/>
	<path fill="none" stroke="#EF3A2E" stroke-width="0.5" stroke-miterlimit="10" d="M11.749,8.872l0.585,2.936l-1.905,0.402
		c-0.401,0.086-0.793-0.17-0.878-0.568l-0.279-1.487c-0.084-0.4,0.171-0.793,0.571-0.878L11.749,8.872z"/>
	<line fill="none" stroke="#EF3A2E" stroke-width="0.5" stroke-miterlimit="10" x1="13.11" y1="10.428" x2="11.964" y2="10.671"/>
	<line fill="none" stroke="#EF3A2E" stroke-width="0.5" stroke-miterlimit="10" x1="13.445" y1="10.428" x2="12.3" y2="10.671"/>
	<path fill="none" stroke="#EF3A2E" stroke-width="0.5" stroke-miterlimit="10" d="M14.758,6.321
		c1.552,1.676,2.105,4.151,1.221,6.422c-1.235,3.166-4.802,4.732-7.969,3.498l-0.711-0.33c-2.684-1.459-3.927-4.719-2.787-7.639
		c0.816-2.096,2.656-3.491,4.726-3.836"/>
</g>
</svg>
