<?xml version="1.0" encoding="utf-8"?>
<!-- Generator: Adobe Illustrator 16.0.0, SVG Export Plug-In . SVG Version: 6.00 Build 0)  -->
<!DOCTYPE svg PUBLIC "-//W3C//DTD SVG 1.1//EN" "http://www.w3.org/Graphics/SVG/1.1/DTD/svg11.dtd">
<svg version="1.1" id="Layer_1" xmlns="http://www.w3.org/2000/svg" xmlns:xlink="http://www.w3.org/1999/xlink" x="0px" y="0px"
	 width="21.098px" height="21.097px" viewBox="0 0 21.098 21.097" enable-background="new 0 0 21.098 21.097" xml:space="preserve">
<g>
	<defs>
		<rect id="SVGID_1_" width="21.097" height="21.097"/>
	</defs>
	<clipPath id="SVGID_2_">
		<use xlink:href="#SVGID_1_"  overflow="visible"/>
	</clipPath>
	<path clip-path="url(#SVGID_2_)" fill="none" stroke="#DC1F26" stroke-miterlimit="10" d="M10.548,20.597
		c5.55,0,10.049-4.499,10.049-10.049C20.597,5,16.098,0.5,10.548,0.5S0.5,5,0.5,10.548C0.5,16.098,4.998,20.597,10.548,20.597"/>
	<path clip-path="url(#SVGID_2_)" fill="none" stroke="#DC1F26" stroke-width="0.5" stroke-miterlimit="10" d="M11.748,2.852
		l0.586,2.934l-1.905,0.405c-0.4,0.085-0.793-0.17-0.878-0.57L9.272,4.135c-0.085-0.4,0.171-0.793,0.571-0.878L11.748,2.852z"/>
	
		<line clip-path="url(#SVGID_2_)" fill="none" stroke="#DC1F26" stroke-width="0.5" stroke-miterlimit="10" x1="13.109" y1="3.388" x2="11.965" y2="3.631"/>
	
		<line clip-path="url(#SVGID_2_)" fill="none" stroke="#DC1F26" stroke-width="0.5" stroke-miterlimit="10" x1="13.445" y1="4.965" x2="12.3" y2="5.208"/>
	<path clip-path="url(#SVGID_2_)" fill="none" stroke="#DC1F26" stroke-width="0.5" stroke-miterlimit="10" d="M14.757,6.968
		c1.553,1.675,2.106,4.151,1.223,6.421c-1.235,3.167-4.803,4.732-7.969,3.499l-0.712-0.331c-2.682-1.458-3.925-4.718-2.786-7.638
		c0.817-2.096,2.656-3.491,4.725-3.836"/>
</g>
</svg>
