<?xml version="1.0" encoding="utf-8"?>
<!-- Generator: Adobe Illustrator 16.0.0, SVG Export Plug-In . SVG Version: 6.00 Build 0)  -->
<!DOCTYPE svg PUBLIC "-//W3C//DTD SVG 1.1//EN" "http://www.w3.org/Graphics/SVG/1.1/DTD/svg11.dtd">
<svg version="1.1" id="Layer_1" xmlns="http://www.w3.org/2000/svg" xmlns:xlink="http://www.w3.org/1999/xlink" x="0px" y="0px"
	 width="708.528px" height="171.126px" viewBox="0 0 708.528 171.126" enable-background="new 0 0 708.528 171.126"
	 xml:space="preserve">
<g>
	<defs>
		<rect id="SVGID_1_" width="708.528" height="171.126"/>
	</defs>
	<clipPath id="SVGID_2_">
		<use xlink:href="#SVGID_1_"  overflow="visible"/>
	</clipPath>
	<path clip-path="url(#SVGID_2_)" fill="#FFFFFF" d="M655.704,54.693c0,0,6.18-3.695,17.645,0.33
		c10.307,3.614,21.085,6.56,35.18-5.824c-12.307,6.467-16.669,4.416-30.476,0.736C664.04,46.201,655.704,54.693,655.704,54.693"/>
	<path clip-path="url(#SVGID_2_)" fill="#FFFFFF" d="M647.277,37.313l-15.501-5.231h22.193
		C653.97,35.8,650.589,38.429,647.277,37.313 M666.091,40.297h16.523c3.867-9.492,3.867-9.507-3.787-9.507h-19.282
		c-2.896-5.258-2.868-5.258-17.054-5.258H590.73l13.043,6.444c-19.262,22.217-13.4,36.773-6.39,51.076
		c-1.985-9.677,0.222-22.705,12.004-30.382c-7.587,15.222,0.71,31.775,17.615,37.745c-5.087-7.455-8.201-18.773-1.772-28.951
		c0,23.151,25.029,29.278,41.386,29.278c-14.753-6.127-22.007-16.828-22.243-26.347c5.545,5.444,14.894,7.204,23.388,5.707
		c1.893-0.329,3.471-1.722,4.23-3.602l1.357-3.327c-10.453,2.854-24.862-0.802-24.757-10.965
		C648.67,44.279,657.347,40.324,666.091,40.297"/>
	<path clip-path="url(#SVGID_2_)" fill="#FFFFFF" d="M114.399,25.494c-8.336,0-15.396,1.38-21.179,4.156V0H0v12.57h29.829v77.566
		h15.408V12.571h32.429v77.566H93.22V57.823c0-6.587,1.327-11.345,3.968-14.277c3.333-3.656,9.072-5.482,17.211-5.482
		c8.132,0,13.824,1.826,17.058,5.482c2.65,2.932,3.971,7.69,3.971,14.277v32.314h15.546V57.889
		C150.974,36.288,138.787,25.494,114.399,25.494"/>
	<path clip-path="url(#SVGID_2_)" fill="#FFFFFF" d="M175.961,51.417c1.617-9.411,8.806-14.184,21.37-14.184
		c12.471,0,19.615,4.773,21.238,14.181l0.105,0.605h-42.818L175.961,51.417z M197.331,90.137h30.91V78.411h-30.91
		c-12.564,0-19.753-4.731-21.37-14.061l-0.105-0.605h57.556v-5.91c0-21.763-11.798-32.342-36.081-32.342
		c-24.376,0-36.222,10.597-36.222,32.395C161.109,79.588,172.955,90.137,197.331,90.137"/>
	<path clip-path="url(#SVGID_2_)" fill="#FFFFFF" d="M245.298,49.001v41.135H260.7V48.923c0-3.42,1.342-5.943,4.004-7.572
		c3.647-2.198,10.267-3.288,19.843-3.288h2.88v-12.57h-2.88C258.386,25.493,245.298,33.329,245.298,49.001"/>
	<path clip-path="url(#SVGID_2_)" fill="#FFFFFF" d="M517.738,49.001v41.138h15.409V48.923c0-3.42,1.325-5.943,3.993-7.572
		c3.657-2.198,10.271-3.288,19.841-3.288h2.881v-12.57h-2.881C530.82,25.493,517.738,33.329,517.738,49.001"/>
	<path clip-path="url(#SVGID_2_)" fill="#FFFFFF" d="M385.636,25.494c-13.027,0-22.663,3.261-28.883,9.755
		c-6.317-6.494-15.994-9.755-29.029-9.755c-24.388,0-36.574,10.794-36.574,32.395v32.248h15.393V57.823
		c0-6.587,1.335-11.345,4.003-14.277c3.255-3.656,8.986-5.482,17.178-5.482c8.196,0,13.974,1.826,17.328,5.482
		c2.668,2.932,3.998,7.69,3.998,14.277v32.314h15.408V57.823c0-6.587,1.341-11.345,3.993-14.277
		c3.262-3.656,8.98-5.482,17.185-5.482c8.191,0,13.975,1.826,17.328,5.482c2.671,2.932,3.997,7.69,3.997,14.277v32.314h15.407
		V57.889C422.368,36.288,410.116,25.494,385.636,25.494"/>
	<path clip-path="url(#SVGID_2_)" fill="#FFFFFF" d="M486.486,72.626c-3.246,3.615-8.978,5.429-17.169,5.429
		c-8.204,0-13.937-1.814-17.186-5.429c-2.668-2.958-3.993-7.781-3.993-14.447c0-6.668,1.325-11.477,3.993-14.45
		c3.249-3.707,8.981-5.548,17.186-5.548c8.191,0,13.923,1.841,17.169,5.548c2.671,2.973,3.997,7.782,3.997,14.45
		C490.483,64.846,489.157,69.668,486.486,72.626 M469.317,25.495c-24.493,0-36.733,10.899-36.733,32.685
		c0,21.705,12.24,32.551,36.733,32.551c24.388,0,36.575-10.846,36.575-32.551C505.893,36.394,493.705,25.495,469.317,25.495"/>
	<path clip-path="url(#SVGID_2_)" d="M23.894,151.732v-0.105c0-10.662,7.974-19.51,19.064-19.51c6.842,0,10.938,2.431,14.711,5.982
		l-2.913,3.129c-3.18-3.013-6.731-5.181-11.851-5.181c-8.348,0-14.594,6.798-14.594,15.46v0.119c0,8.729,6.296,15.567,14.594,15.567
		c5.174,0,8.566-2,12.168-5.443l2.812,2.749c-3.937,3.994-8.243,6.626-15.085,6.626C31.928,171.126,23.894,162.565,23.894,151.732"
		/>
	<path clip-path="url(#SVGID_2_)" d="M65.965,131.157h4.153v16.315c1.829-3.024,4.74-5.443,9.534-5.443
		c6.737,0,10.668,4.523,10.668,11.162v17.289h-4.156v-16.276c0-5.153-2.793-8.4-7.704-8.4c-4.791,0-8.342,3.511-8.342,8.729v15.947
		h-4.153V131.157z"/>
	<path clip-path="url(#SVGID_2_)" d="M118.929,160.239v-2.695c-2.051-0.593-4.8-1.186-8.192-1.186c-5.22,0-8.13,2.265-8.13,5.772
		v0.105c0,3.497,3.234,5.548,7.007,5.548C114.722,167.784,118.929,164.644,118.929,160.239 M98.412,162.395v-0.104
		c0-5.879,4.839-9.008,11.899-9.008c3.555,0,6.085,0.5,8.564,1.197v-0.973c0-5.009-3.075-7.585-8.288-7.585
		c-3.294,0-5.878,0.854-8.462,2.036l-1.234-3.392c3.063-1.393,6.085-2.315,10.115-2.315c3.938,0,6.956,1.027,9.001,3.079
		c1.886,1.88,2.853,4.56,2.853,8.123v17.025h-3.985v-4.207c-1.937,2.539-5.165,4.8-10.07,4.8
		C103.637,171.072,98.412,168.113,98.412,162.395"/>
	<rect x="133.429" y="131.155" clip-path="url(#SVGID_2_)" width="4.153" height="39.322"/>
	<path clip-path="url(#SVGID_2_)" d="M168.979,155.019c-0.422-5.06-3.332-9.491-8.886-9.491c-4.854,0-8.507,4.048-9.052,9.491
		H168.979z M146.846,156.636v-0.104c0-8.035,5.653-14.501,13.357-14.501c8.244,0,12.983,6.571,12.983,14.709
		c0,0.527,0,0.856-0.053,1.342h-22.092c0.596,6.036,4.856,9.426,9.812,9.426c3.815,0,6.515-1.551,8.776-3.932l2.578,2.331
		c-2.794,3.128-6.186,5.218-11.465,5.218C153.092,171.125,146.846,165.247,146.846,156.636"/>
	<path clip-path="url(#SVGID_2_)" d="M181.383,159.922v-17.301h4.141v16.277c0,5.165,2.809,8.398,7.711,8.398
		c4.733,0,8.341-3.509,8.341-8.728v-15.948h4.102v27.859h-4.102v-4.852c-1.886,3.01-4.739,5.444-9.53,5.444
		C185.314,171.073,181.383,166.549,181.383,159.922"/>
	<path clip-path="url(#SVGID_2_)" d="M216.348,142.621h4.147v7.27c2.051-4.626,6.082-7.953,11.373-7.755v4.482h-0.336
		c-6.079,0-11.037,4.365-11.037,12.752v11.109h-4.147V142.621z"/>
	<path clip-path="url(#SVGID_2_)" d="M255.31,156.688v-0.105c0-7.862,6.132-14.555,14.271-14.555c5.272,0,8.566,2.21,11.15,4.971
		l-2.742,2.893c-2.216-2.312-4.696-4.181-8.459-4.181c-5.657,0-9.968,4.785-9.968,10.768v0.104c0,6.034,4.414,10.821,10.228,10.821
		c3.563,0,6.306-1.775,8.522-4.155l2.641,2.485c-2.806,3.116-6.153,5.39-11.372,5.39C261.441,171.124,255.31,164.497,255.31,156.688
		"/>
	<path clip-path="url(#SVGID_2_)" d="M311.39,156.688v-0.105c0-5.982-4.48-10.872-10.348-10.872c-6.034,0-10.163,4.89-10.163,10.768
		v0.104c0,5.983,4.398,10.821,10.273,10.821C307.189,167.404,311.39,162.566,311.39,156.688 M286.606,156.688v-0.105
		c0-7.862,6.147-14.555,14.546-14.555c8.348,0,14.49,6.575,14.49,14.45v0.104c0,7.863-6.193,14.541-14.6,14.541
		C292.699,171.124,286.606,164.551,286.606,156.688"/>
	<path clip-path="url(#SVGID_2_)" d="M324.483,142.621h4.141v4.854c1.841-3.027,4.752-5.443,9.537-5.443
		c6.739,0,10.671,4.521,10.671,11.159v17.289h-4.156v-16.274c0-5.156-2.794-8.401-7.698-8.401c-4.791,0-8.354,3.509-8.354,8.731
		v15.944h-4.141V142.621z"/>
	<path clip-path="url(#SVGID_2_)" d="M359.014,142.621h4.162v4.854c1.832-3.027,4.739-5.443,9.537-5.443
		c6.719,0,10.65,4.521,10.65,11.159v17.289h-4.142v-16.274c0-5.156-2.803-8.401-7.704-8.401c-4.787,0-8.342,3.509-8.342,8.731
		v15.944h-4.162V142.621z"/>
	<path clip-path="url(#SVGID_2_)" d="M413.97,155.019c-0.428-5.06-3.326-9.491-8.881-9.491c-4.859,0-8.514,4.048-9.046,9.491H413.97
		z M391.843,156.636v-0.104c0-8.035,5.651-14.501,13.355-14.501c8.229,0,12.976,6.571,12.976,14.709c0,0.527,0,0.856-0.051,1.342
		h-22.08c0.584,6.036,4.845,9.426,9.795,9.426c3.826,0,6.526-1.551,8.788-3.932l2.584,2.331c-2.809,3.128-6.201,5.218-11.478,5.218
		C398.078,171.125,391.843,165.247,391.843,156.636"/>
	<path clip-path="url(#SVGID_2_)" d="M425.085,156.688v-0.105c0-7.862,6.138-14.555,14.271-14.555c5.279,0,8.563,2.21,11.147,4.971
		l-2.733,2.893c-2.21-2.312-4.692-4.181-8.465-4.181c-5.657,0-9.968,4.785-9.968,10.768v0.104c0,6.034,4.419,10.821,10.228,10.821
		c3.563,0,6.318-1.775,8.528-4.155l2.623,2.485c-2.797,3.116-6.142,5.39-11.36,5.39
		C431.223,171.124,425.085,164.497,425.085,156.688"/>
	<path clip-path="url(#SVGID_2_)" d="M460.379,163.092v-16.804h-3.894v-3.668h3.894v-8.387h4.135v8.387h8.839v3.668h-8.839v16.277
		c0,3.393,1.886,4.629,4.691,4.629c1.401,0,2.584-0.278,4.049-0.974v3.549c-1.465,0.764-3.036,1.183-5.016,1.183
		C463.762,170.952,460.379,168.757,460.379,163.092"/>
	<path clip-path="url(#SVGID_2_)" d="M496.192,130.619l4.312,1.984l-6.135,5.824h-3.229L496.192,130.619z M501.639,155.019
		c-0.425-5.06-3.339-9.491-8.893-9.491c-4.845,0-8.513,4.048-9.046,9.491H501.639z M479.493,156.636v-0.104
		c0-8.035,5.674-14.501,13.363-14.501c8.252,0,12.978,6.571,12.978,14.709c0,0.527,0,0.856-0.051,1.342H483.7
		c0.593,6.036,4.858,9.426,9.81,9.426c3.817,0,6.512-1.551,8.775-3.932l2.581,2.331c-2.79,3.128-6.191,5.218-11.465,5.218
		C485.751,171.125,479.493,165.247,479.493,156.636"/>
	<path clip-path="url(#SVGID_2_)" d="M534.886,155.019c-0.43-5.06-3.344-9.491-8.892-9.491c-4.845,0-8.513,4.048-9.052,9.491
		H534.886z M512.735,156.636v-0.104c0-8.035,5.662-14.501,13.363-14.501c8.237,0,12.983,6.571,12.983,14.709
		c0,0.527,0,0.856-0.06,1.342h-22.08c0.593,6.036,4.845,9.426,9.794,9.426c3.839,0,6.527-1.551,8.788-3.932l2.588,2.331
		c-2.794,3.128-6.188,5.218-11.481,5.218C518.993,171.125,512.735,165.247,512.735,156.636"/>
</g>
</svg>
