<?xml version="1.0" encoding="UTF-8"?>
<svg xmlns="http://www.w3.org/2000/svg" xmlns:xlink="http://www.w3.org/1999/xlink" width="42pt" height="65pt" viewBox="0 0 42 65" version="1.1">
<g id="surface1">
<path style=" stroke:none;fill-rule:nonzero;fill:rgb(93.333333%,20.784314%,14.117647%);fill-opacity:1;" d="M 21.484375 0.375 C 10.777344 0.371094 5.398438 5.863281 2.769531 12.03125 C 0.691406 16.90625 0.332031 22.199219 0.410156 25.53125 C 0.476562 28.226562 1.347656 31.402344 2.707031 34.757812 C 8.15625 48.226562 21.40625 64.605469 21.40625 64.605469 C 21.40625 64.605469 33.835938 48.949219 39.753906 34.785156 C 42.613281 27.949219 42.449219 18.191406 39.1875 11.550781 C 36.269531 5.609375 30.960938 0.203125 21.484375 0.375 "/>
<path style="fill:none;stroke-width:3;stroke-linecap:butt;stroke-linejoin:miter;stroke:rgb(93.333333%,20.784314%,14.117647%);stroke-opacity:1;stroke-miterlimit:10;" d="M 121.233259 2.140385 C 60.815011 2.118089 30.462612 33.465805 15.628069 68.670673 C 3.901507 96.495673 1.873605 126.70631 2.314453 145.724519 C 2.689174 161.108534 7.604632 179.234916 15.275391 198.386899 C 46.024554 275.26238 120.792411 368.748137 120.792411 368.748137 C 120.792411 368.748137 190.931362 279.387079 224.325614 198.542969 C 240.460658 159.525541 239.534877 103.83095 221.129464 65.928305 C 204.663783 32.016587 174.708147 1.159375 121.233259 2.140385 Z M 121.233259 2.140385 " transform="matrix(0.177215,0,0,0.175202,0,0)"/>
<path style=" stroke:none;fill-rule:nonzero;fill:rgb(100%,100%,100%);fill-opacity:1;" d="M 24.722656 24.523438 C 24.722656 24.523438 26.300781 23.589844 29.230469 24.605469 C 31.863281 25.519531 34.617188 26.261719 38.21875 23.132812 C 35.074219 24.769531 33.960938 24.25 30.433594 23.320312 C 26.851562 22.378906 24.722656 24.523438 24.722656 24.523438 "/>
<path style=" stroke:none;fill-rule:nonzero;fill:rgb(100%,100%,100%);fill-opacity:1;" d="M 22.570312 20.132812 L 18.609375 18.8125 L 24.277344 18.8125 C 24.277344 19.75 23.414062 20.414062 22.570312 20.132812 M 27.375 20.886719 L 31.597656 20.886719 C 32.585938 18.488281 32.585938 18.484375 30.628906 18.484375 L 25.703125 18.484375 C 24.960938 17.15625 24.96875 17.15625 21.347656 17.15625 L 8.121094 17.15625 L 11.453125 18.785156 C 6.53125 24.394531 8.03125 28.074219 9.820312 31.6875 C 9.3125 29.242188 9.878906 25.949219 12.886719 24.011719 C 10.949219 27.855469 13.070312 32.039062 17.386719 33.546875 C 16.089844 31.664062 15.292969 28.804688 16.933594 26.234375 C 16.933594 32.082031 23.332031 33.628906 27.511719 33.628906 C 23.742188 32.082031 21.886719 29.378906 21.828125 26.972656 C 23.242188 28.347656 25.632812 28.792969 27.800781 28.414062 C 28.285156 28.332031 28.6875 27.980469 28.882812 27.503906 L 29.230469 26.664062 C 26.558594 27.386719 22.878906 26.460938 22.90625 23.894531 C 22.925781 21.890625 25.140625 20.894531 27.375 20.886719 "/>
</g>
</svg>
